<?xml version="1.0" encoding="UTF-8" standalone="no"?>
<!-- Created with Inkscape (http://www.inkscape.org/) -->

<svg
   xmlns:dc="http://purl.org/dc/elements/1.1/"
   xmlns:cc="http://creativecommons.org/ns#"
   xmlns:rdf="http://www.w3.org/1999/02/22-rdf-syntax-ns#"
   xmlns:svg="http://www.w3.org/2000/svg"
   xmlns="http://www.w3.org/2000/svg"
   xmlns:sodipodi="http://sodipodi.sourceforge.net/DTD/sodipodi-0.dtd"
   xmlns:inkscape="http://www.inkscape.org/namespaces/inkscape"
   version="1.2"
   width="720"
   height="780"
   id="svg2816"
   inkscape:version="0.47 r22583"
   sodipodi:docname="Three Legged Stool Outline.svg">
  <metadata
     id="metadata12">
    <rdf:RDF>
      <cc:Work
         rdf:about="">
        <dc:format>image/svg+xml</dc:format>
        <dc:type
           rdf:resource="http://purl.org/dc/dcmitype/StillImage" />
        <dc:title>Three Legged Stool Outline</dc:title>
        <dc:date>December 2009</dc:date>
        <dc:creator>
          <cc:Agent>
            <dc:title>Rygle</dc:title>
          </cc:Agent>
        </dc:creator>
        <dc:rights>
          <cc:Agent>
            <dc:title>Public Domain</dc:title>
          </cc:Agent>
        </dc:rights>
        <cc:license
           rdf:resource="http://creativecommons.org/licenses/publicdomain/" />
      </cc:Work>
      <cc:License
         rdf:about="http://creativecommons.org/licenses/publicdomain/">
        <cc:permits
           rdf:resource="http://creativecommons.org/ns#Reproduction" />
        <cc:permits
           rdf:resource="http://creativecommons.org/ns#Distribution" />
        <cc:permits
           rdf:resource="http://creativecommons.org/ns#DerivativeWorks" />
      </cc:License>
    </rdf:RDF>
  </metadata>
  <sodipodi:namedview
     pagecolor="#ffffff"
     bordercolor="#666666"
     borderopacity="1"
     objecttolerance="10"
     gridtolerance="10"
     guidetolerance="10"
     inkscape:pageopacity="0"
     inkscape:pageshadow="2"
     inkscape:window-width="1228"
     inkscape:window-height="874"
     id="namedview10"
     showgrid="false"
     inkscape:zoom="0.3025641"
     inkscape:cx="870.63559"
     inkscape:cy="390"
     inkscape:window-x="0"
     inkscape:window-y="0"
     inkscape:window-maximized="0"
     inkscape:current-layer="svg2816" />
  <title
     id="title2928">Three Legged Stool Outline</title>
  <defs
     id="defs2820">
    <inkscape:perspective
       sodipodi:type="inkscape:persp3d"
       inkscape:vp_x="0 : 390 : 1"
       inkscape:vp_y="0 : 1000 : 0"
       inkscape:vp_z="720 : 390 : 1"
       inkscape:persp3d-origin="360 : 260 : 1"
       id="perspective14" />
  </defs>
  <flowRoot
     transform="matrix(0.46608493,0,0,0.46608493,360.88269,68.591205)"
     id="flowRoot3242"
     xml:space="preserve"
     style="font-size:16px;font-style:normal;font-weight:normal;fill:#000000;fill-opacity:1;stroke:none;font-family:Bitstream Vera Sans"><flowRegion
       id="flowRegion3244"><rect
         width="374.27521"
         height="78.057396"
         x="1038.7638"
         y="147.69696"
         id="rect3246" /></flowRegion><flowPara
       id="flowPara3248" /></flowRoot>  <path
     d="m 309.02998,761.81168 c -13.88106,-10.53998 -4.81031,-370.30861 -3.46912,-575.32792 -1.46182,-0.90347 -8.07658,-2.36405 -22.54881,-3.24574 -8.77115,-0.53436 -11.1199,-1.06872 -19.89105,-1.60307 -2.23849,7.4178 -4.47688,14.8356 -6.71537,22.2534 -41.09514,142.27979 -83.15995,281.78254 -129.05051,425.18917 -3.57443,14.04247 -5.51075,16.73324 -15.42791,21.43926 -18.519115,8.7879 -89.104526,5.34728 -97.740746,-5.05876 -1.864234,-2.24625 0.06058,-12.09512 6.319835,-32.33785 39.791828,-147.75192 90.363891,-289.72926 133.814061,-445.53894 -0.017,-1.59048 -6.61129,-4.3644 -14.65397,-6.16427 C 117.69807,156.50066 95.718305,141.35735 89.453252,131.22028 80.748398,112.28797 77.86578,88.599723 88.988149,70.446774 102.81585,48.910716 112.12706,42.926425 211.07873,23.083778 310.03036,3.2411318 497.14211,14.389297 566.71717,34.944305 c 69.57505,20.555008 67.05612,28.345882 69.17066,61.231519 1.2941,20.124886 -1.73177,28.464976 -14.77194,40.715606 -8.49724,7.98273 -27.61472,19.95424 -45.0927,24.14715 -7.64832,1.83481 -13.9061,3.78458 -13.9061,4.33283 0,0.54825 5.24477,18.02457 11.65487,38.83627 46.83079,141.23478 89.49083,289.21554 131.66213,429.76283 3.72515,6.40838 -2.57448,13.61223 -15.73196,17.99003 -14.4869,4.82014 -76.36589,4.03614 -86.44666,-1.17681 -18.18529,-3.98708 -147.01861,-465.95618 -149.52074,-468.33567 -14.45425,-0.32447 -29.2462,1.15173 -43.76606,2.26939 -1.1633,191.77448 2.29222,572.28927 -0.27788,576.3946 -2.57009,4.10533 -86.77986,11.23962 -100.66081,0.69963 z m 86.01668,-8.55095 c 4.90086,-7.24005 -0.67081,-378.8052 0.0642,-568.2078 l -36.90758,0 -36.90758,0 c -3.85317,174.0918 -13.46147,561.92396 -2.56004,568.60323 6.47325,9.25107 70.21654,5.46896 76.31098,-0.39543 z M 105.70759,641.57839 c 7.5682,-7.03933 99.58068,-306.43733 143.60417,-460.34812 0,-0.68139 -10.29923,-1.83835 -15.03771,-2.57101 -4.73848,-0.73267 -19.82115,-3.26377 -33.51713,-5.62468 -17.00768,-2.93178 -31.86763,-3.41298 -33.03883,-1.51794 C 121.97148,324.599 77.903639,456.3949 28.193046,631.75018 c -4.603164,18.76726 67.483835,14.2008 77.514544,9.82821 z m 584.18078,-4.82809 c 2.26697,-2.75623 -87.5089,-293.92543 -133.52652,-441.75653 -4.35101,-14.21541 -8.71293,-25.84279 -9.69318,-25.8386 -3.58643,0.0154 -77.7013,10.49363 -78.31346,11.19636 -0.34734,0.39878 2.09239,9.67182 5.4216,20.60675 49.82423,148.37141 123.51052,425.89928 135.27275,438.65535 6.80593,7.83843 77.31746,4.5532 80.83881,-2.86333 z M 427.29336,171.79747 c 65.26526,-4.4998 145.67742,-19.17111 171.26409,-32.68616 18.17222,-9.59871 24.03118,-17.14266 22.89872,-29.48423 l -0.81446,-8.87678 -18.28322,9.06772 c -33.10655,16.41945 -87.41247,27.36544 -169.93017,34.25142 -57.43819,4.79315 -91.919,4.78901 -149.77549,-0.018 -83.28595,-6.91975 -156.98359,-26.34561 -167.03703,-33.06157 -13.67124,-9.13274 -22.849935,-17.947903 -23.069953,-4.96521 -0.378712,22.3472 26.264843,35.68109 63.293843,45.78531 24.19216,6.6014 93.9241,17.61617 125.48768,19.82188 42.06855,2.93981 104.64126,3.01479 145.96599,0.1656 z m 66.10552,-45.11464 C 542.94801,119.58977 578.66265,110.37757 599.15076,99.405204 618.50191,89.041738 621.74442,84.531162 616.66545,75.041086 606.0526,55.210759 516.75315,34.622077 458.93723,28.557453 401.1213,22.49283 313.53811,22.867197 256.14392,28.644155 198.74971,34.421112 113.23053,53.453553 100.65266,72.649827 c -16.712977,30.229083 92.82578,48.530163 106.4497,51.074993 66.67153,9.92201 78.13438,10.55326 172.30813,9.48905 58.34191,-0.65931 82.73382,-2.05685 113.98839,-6.53099 l 0,-5e-5 z"
     id="path3258"
     style="fill:#000000" />
</svg>
